<svg width="568" height="600" viewBox="0 0 568 600" fill="none" xmlns="http://www.w3.org/2000/svg">
<path d="M78.0144 470.091L71.2475 443.462C59.251 438.389 46.9774 433.995 34.4851 430.302L33.6316 442.678L30.1669 429.044C14.6744 424.63 4.13495 422.686 4.13495 422.686C4.13495 422.686 18.3743 476.71 48.2361 518.011L83.0293 524.108L55.9999 527.998C59.7578 532.509 63.7963 536.78 68.0914 540.785C111.531 581.018 159.913 599.476 176.155 582.011C192.398 564.546 170.351 517.773 126.911 477.539C113.445 465.066 96.5279 455.057 79.5946 447.18L78.0144 470.091Z" fill="#2DFF35"/>
<path d="M142.358 441.168L150.358 414.882C142.716 404.351 134.485 394.259 125.704 384.653L118.563 394.807L122.659 381.349C111.683 369.579 103.668 362.478 103.668 362.478C103.668 362.478 87.8745 416.07 92.045 466.829L118.672 489.996L93.5179 479.384C94.3984 485.184 95.6435 490.923 97.246 496.567C113.592 553.416 145.449 594.174 168.4 587.602C191.35 581.03 196.704 529.617 180.357 472.767C175.29 455.143 165.993 437.849 155.577 422.371L142.358 441.168Z" fill="#2DFF35"/>
<path d="M284 595.76C396.955 595.76 488.522 591.014 488.522 585.159C488.522 579.304 396.955 574.558 284 574.558C171.045 574.558 79.4776 579.304 79.4776 585.159C79.4776 591.014 171.045 595.76 284 595.76Z" fill="#3F3D56"/>
<path d="M449.925 139.25H446.699V51.0486C446.699 44.3448 445.376 37.7067 442.805 31.5131C440.234 25.3196 436.466 19.6921 431.716 14.9517C426.966 10.2114 421.327 6.45123 415.121 3.8858C408.914 1.32037 402.262 -2.00895e-05 395.545 2.2924e-10H208.293C201.576 -1.48027e-05 194.924 1.32038 188.718 3.88581C182.511 6.45124 176.872 10.2115 172.122 14.9518C167.372 19.6921 163.604 25.3196 161.033 31.5131C158.462 37.7067 157.139 44.3448 157.139 51.0486V534.928C157.139 541.632 158.462 548.27 161.033 554.464C163.604 560.657 167.372 566.285 172.122 571.025C176.872 575.766 182.511 579.526 188.718 582.091C194.924 584.657 201.576 585.977 208.293 585.977H395.545C402.262 585.977 408.914 584.657 415.121 582.091C421.327 579.526 426.966 575.766 431.716 571.025C436.466 566.285 440.234 560.658 442.805 554.464C445.376 548.271 446.699 541.632 446.699 534.928V202.033H449.925V139.25Z" fill="#3F3D56"/>
<path d="M435.811 51.4048V534.573C435.811 544.684 431.786 554.381 424.621 561.53C417.457 568.68 407.74 572.697 397.608 572.697H209.458C199.326 572.697 189.609 568.68 182.445 561.53C175.28 554.381 171.255 544.684 171.255 534.573V51.4048C171.255 41.2937 175.28 31.5967 182.445 24.4471C189.609 17.2974 199.326 13.2807 209.458 13.2805H232.283C231.161 16.0309 230.734 19.0142 231.039 21.968C231.344 24.9218 232.372 27.7555 234.032 30.22C235.692 32.6844 237.933 34.7041 240.558 36.1012C243.184 37.4984 246.113 38.2302 249.089 38.2324H356.364C359.339 38.2302 362.268 37.4983 364.894 36.1012C367.52 34.704 369.761 32.6844 371.421 30.2199C373.081 27.7555 374.108 24.9218 374.413 21.968C374.718 19.0142 374.291 16.0309 373.17 13.2805H397.608C407.74 13.2807 417.457 17.2974 424.621 24.4471C431.786 31.5967 435.811 41.2937 435.811 51.4048Z" fill="#01001E"/>
<path d="M435.811 430.764V534.573C435.811 544.684 431.786 554.381 424.621 561.531C417.457 568.68 407.74 572.697 397.608 572.697H209.458C199.326 572.697 189.609 568.68 182.445 561.531C175.28 554.381 171.255 544.684 171.255 534.573V440.885C187.39 421.983 207.279 406.627 229.664 395.787C252.05 384.947 276.445 378.859 301.308 377.908C326.172 376.957 350.962 381.163 374.114 390.261C397.265 399.359 418.273 413.15 435.811 430.764Z" fill="#E6E6E6"/>
<path d="M259.936 411.571H252.332L254.867 263.339H257.402L259.936 411.571Z" fill="#E6E6E6"/>
<path d="M266.272 170.014L278.547 151.083C274.907 141.049 270.703 131.227 265.954 121.665L258.017 128.062L264.302 118.37C258.312 106.604 253.599 99.1912 253.599 99.1912C253.599 99.1912 228.982 137.904 220.758 178.892L236.509 203.185L219.072 189.13C218.451 193.905 218.131 198.714 218.115 203.529C218.115 252.072 234.002 291.425 253.599 291.425C273.197 291.425 289.084 252.072 289.084 203.529C289.084 188.479 285.672 172.735 280.966 158.171L266.272 170.014Z" fill="#E6E6E6"/>
<path d="M215.807 422.038H212.119L213.349 350.147H214.577L215.807 422.038Z" fill="#E6E6E6"/>
<path d="M218.88 304.885L224.833 295.704C223.068 290.838 221.028 286.074 218.725 281.437L214.876 284.539L217.924 279.838C215.019 274.132 212.734 270.537 212.734 270.537C212.734 270.537 200.795 289.312 196.806 309.191L204.445 320.973L195.988 314.157C195.687 316.472 195.532 318.804 195.524 321.14C195.524 344.683 203.229 363.768 212.734 363.768C222.238 363.768 229.943 344.683 229.943 321.14C229.943 313.841 228.289 306.205 226.006 299.141L218.88 304.885Z" fill="#E6E6E6"/>
<path d="M311.818 422.038H308.13L309.36 350.147H310.589L311.818 422.038Z" fill="#E6E6E6"/>
<path d="M314.891 304.885L320.844 295.704C319.079 290.838 317.04 286.074 314.737 281.437L310.887 284.539L313.935 279.838C311.031 274.132 308.745 270.537 308.745 270.537C308.745 270.537 296.806 289.312 292.817 309.191L300.456 320.973L291.999 314.157C291.698 316.472 291.543 318.804 291.535 321.14C291.535 344.683 299.24 363.768 308.745 363.768C318.25 363.768 325.955 344.683 325.955 321.14C325.955 313.841 324.3 306.205 322.017 299.141L314.891 304.885Z" fill="#E6E6E6"/>
<path d="M213 183.733C231.715 183.733 246.886 168.592 246.886 149.916C246.886 131.24 231.715 116.099 213 116.099C194.285 116.099 179.114 131.24 179.114 149.916C179.114 168.592 194.285 183.733 213 183.733Z" fill="#E6E6E6"/>
<path d="M335.533 188.547L397.385 190.08L405.71 116.479H335.533V188.547Z" fill="#2F2E41"/>
<path d="M320.121 130.885L303.06 65.6046C303.06 65.6046 307.773 34.2677 319.175 34.7846C330.577 35.3016 316.215 65.4201 316.215 65.4201L335.533 121.812L320.121 130.885Z" fill="#FFB8B8"/>
<path d="M353.567 294.451L356.239 321.114C356.239 321.114 272.079 378.438 272.079 402.435C272.079 426.431 269.407 502.419 269.407 502.419L300.132 503.752L302.804 467.758C302.804 467.758 309.483 427.764 305.476 413.1L349.56 379.771C349.56 379.771 336.201 395.769 338.873 423.765C341.544 451.76 334.865 506.418 334.865 506.418L366.926 509.085C366.926 509.085 370.934 479.756 372.269 477.09C373.605 474.423 380.285 426.431 373.605 413.1L428.376 349.11C428.376 349.11 447.078 325.113 428.376 301.117L417.689 295.785L353.567 294.451Z" fill="#2F2E41"/>
<path d="M270.743 497.087L268.071 514.417L250.705 555.744C250.705 555.744 221.316 570.409 242.69 573.075C264.064 575.741 272.079 570.409 276.087 563.743C280.094 557.077 288.109 546.412 288.109 546.412L286.774 574.408H293.453L304.401 536.169C305.472 532.509 305.658 528.647 304.944 524.9C304.23 521.154 302.635 517.629 300.291 514.617C300.239 514.551 300.186 514.484 300.132 514.417C294.789 507.752 297.461 498.42 297.461 498.42L270.743 497.087Z" fill="#2F2E41"/>
<path d="M337.537 497.087L334.865 514.417L317.499 555.744C317.499 555.744 288.109 570.409 309.483 573.075C330.857 575.741 338.873 570.409 342.88 563.743C346.888 557.077 354.903 546.412 354.903 546.412L353.567 574.408H360.247L371.194 536.169C372.266 532.509 372.452 528.647 371.738 524.9C371.023 521.154 369.429 517.629 367.085 514.617C367.032 514.551 366.979 514.484 366.926 514.417C361.582 507.752 364.254 498.42 364.254 498.42L337.537 497.087Z" fill="#2F2E41"/>
<path d="M369.598 157.139C384.353 157.139 396.315 145.202 396.315 130.477C396.315 115.752 384.353 103.814 369.598 103.814C354.842 103.814 342.88 115.752 342.88 130.477C342.88 145.202 354.842 157.139 369.598 157.139Z" fill="#FFB8B8"/>
<path d="M368.262 153.14L380.285 181.136L404.33 162.472C404.33 162.472 389.636 142.475 389.636 139.809L368.262 153.14Z" fill="#FFB8B8"/>
<path d="M370.934 169.137L376.633 172.632C376.633 172.632 395.047 162.889 399.688 156.015C399.688 156.015 416.353 150.474 423.033 163.805C429.712 177.136 419.025 269.122 419.025 269.122C419.025 269.122 425.704 278.454 424.368 282.453C423.033 286.453 428.376 293.118 428.376 293.118V301.117C428.376 301.117 352.231 302.45 352.231 295.784V274.454L344.216 271.788C344.216 271.788 336.201 289.119 333.529 287.786C330.857 286.453 317.499 275.788 317.499 275.788C317.499 275.788 338.873 205.132 350.895 193.134L365.59 167.804L370.934 169.137Z" fill="#2DFF35"/>
<path d="M368.262 170.471C368.262 170.471 365.59 165.138 361.582 163.805C357.575 162.472 337.537 134.476 337.537 134.476L340.208 119.812L313.491 115.812C313.491 115.812 314.827 130.477 320.17 139.809C325.514 149.141 354.903 197.133 354.903 197.133L369.598 170.471L368.262 170.471Z" fill="#2DFF35"/>
<path d="M388.968 276.454L372.937 324.447C372.937 324.447 339.541 361.774 358.243 361.774C376.945 361.774 386.296 328.446 386.296 328.446L409.006 280.453L388.968 276.454Z" fill="#FFB8B8"/>
<path d="M337.577 130.867C358.975 122.308 380.071 120.482 400.617 130.867V113.615C400.617 112.139 400.326 110.678 399.76 109.315C399.195 107.952 398.365 106.713 397.32 105.669C396.274 104.626 395.033 103.798 393.667 103.234C392.301 102.669 390.837 102.378 389.358 102.378H346.472C345.303 102.378 344.147 102.608 343.068 103.054C341.988 103.5 341.008 104.154 340.182 104.978C339.356 105.803 338.701 106.781 338.254 107.858C337.807 108.935 337.577 110.089 337.577 111.255V130.867Z" fill="#2F2E41"/>
<path d="M405.666 167.805C405.666 167.805 417.855 157.502 424.451 169.319C431.048 181.136 427.04 231.795 425.704 238.46C424.368 245.126 415.017 286.453 415.017 286.453L382.956 279.787C382.956 279.787 380.285 261.123 388.3 262.457L405.666 167.805Z" fill="#2DFF35"/>
<path d="M418.963 156.349C412.932 153.044 410.125 145.626 409.925 138.762C409.725 131.899 411.393 125.106 411.524 118.241C411.592 116.836 411.472 115.429 411.167 114.056C410.667 112.352 409.888 110.742 408.861 109.292C401.018 97.2989 387.385 88.8629 373.025 88.7301C370.95 88.703 368.89 89.0809 366.961 89.8426C365.476 90.436 364.991 90.3634 364.706 92.1825C361.305 91.0626 357.616 91.1796 354.292 92.513C351 93.8486 347.93 95.6734 345.185 97.9256C343.554 99.1362 342.015 100.466 340.581 101.904C332.992 109.75 331.244 121.841 333.443 132.523C334.157 135.995 330.728 139.348 327.89 141.481C325.053 143.614 321.776 145.573 320.383 148.834C319.042 151.971 319.778 155.558 319.509 158.958C319.206 162.172 318.009 165.237 316.053 167.807C314.097 170.378 311.46 172.352 308.439 173.507C309.055 174.243 309.859 174.799 310.766 175.118C311.673 175.436 312.649 175.504 313.591 175.315C315.558 174.901 317.398 174.027 318.96 172.764C324.834 168.421 329.036 162.198 330.866 155.135C331.699 158.918 331.376 162.82 331.345 166.693C331.418 171.016 330.621 175.309 329 179.318C327.351 183.346 324.331 186.664 320.471 188.689C324.193 190.508 328.296 189.19 331.45 186.507C334.604 183.823 336.467 179.929 337.768 176.002C339.884 169.602 340.742 162.855 340.296 156.131C343.758 161.948 345.023 168.808 343.863 175.474C342.652 182.271 339.096 188.43 333.812 192.885C343.025 192.807 352.086 190.53 360.237 186.244C362.342 185.292 364.197 183.866 365.657 182.078C368.28 178.447 367.659 173.495 366.924 169.079C366.342 165.587 370.714 160.54 368.21 158.033C367.466 157.299 366.473 156.873 365.427 156.839C357.801 156.106 350.739 152.284 346.669 145.806C343.816 141.267 341.928 136.083 341.928 131.235C341.93 127.418 342.757 123.646 344.355 120.177C345.952 116.709 348.281 113.625 351.182 111.138C354.083 108.65 357.488 106.817 361.165 105.763C364.841 104.71 368.703 104.461 372.484 105.034C376.266 105.607 379.879 106.988 383.077 109.082C386.275 111.177 388.982 113.936 391.013 117.171C393.044 120.406 394.351 124.04 394.845 127.825C395.338 131.61 395.008 135.457 393.874 139.103C392.971 142.037 392.324 145.044 391.94 148.089C391.487 151.623 390.766 155.117 389.784 158.542C387.89 165.125 384.68 171.841 378.742 175.275C380.738 176.364 383.047 176.413 385.308 176.662C392.759 177.481 400.595 177.3 407.339 174.035C414.084 170.769 419.444 163.814 418.963 156.349Z" fill="#2F2E41"/>
<path opacity="0.2" d="M395.648 203.132L388.676 260.406L388.968 205.799L395.648 203.132Z" fill="black"/>
<path opacity="0.2" d="M418.555 270.768L415.686 288.452L422.365 291.119L418.555 270.768Z" fill="black"/>
</svg>
